<svg id="svg" xmlns="http://www.w3.org/2000/svg" xmlns:xlink="http://www.w3.org/1999/xlink" width="400" height="400" viewBox="0, 0, 400,400"><g id="svgg"><path id="path0" d="M140.800 17.165 C 140.800 17.366,140.080 17.651,139.200 17.800 C 138.320 17.949,137.600 18.198,137.600 18.355 C 137.600 18.512,136.520 18.863,135.200 19.136 C 133.880 19.408,132.800 19.788,132.800 19.981 C 132.800 20.173,132.080 20.451,131.200 20.600 C 130.320 20.749,129.600 21.020,129.600 21.203 C 129.600 21.387,129.060 21.655,128.400 21.800 C 127.740 21.945,127.200 22.195,127.200 22.356 C 127.200 22.517,126.300 22.879,125.200 23.161 C 124.100 23.443,123.200 23.817,123.200 23.992 C 123.200 24.168,122.570 24.429,121.800 24.574 C 121.030 24.718,120.400 24.994,120.400 25.186 C 120.400 25.379,119.860 25.655,119.200 25.800 C 118.540 25.945,118.000 26.201,118.000 26.368 C 118.000 26.536,117.280 26.889,116.400 27.153 C 115.520 27.416,114.800 27.791,114.800 27.984 C 114.800 28.178,114.260 28.455,113.600 28.600 C 112.940 28.745,112.400 29.015,112.400 29.200 C 112.400 29.385,111.875 29.652,111.233 29.793 C 110.592 29.934,109.974 30.291,109.860 30.587 C 109.747 30.883,109.102 31.246,108.427 31.394 C 107.752 31.542,107.200 31.829,107.200 32.032 C 107.200 32.234,106.924 32.400,106.587 32.400 C 106.251 32.400,105.876 32.659,105.754 32.976 C 105.633 33.292,105.023 33.663,104.400 33.800 C 103.777 33.937,103.176 34.285,103.066 34.573 C 102.955 34.861,102.385 35.218,101.798 35.365 C 101.211 35.512,100.522 35.808,100.266 36.024 C 98.323 37.655,97.813 38.000,97.339 38.000 C 97.042 38.000,96.800 38.184,96.800 38.410 C 96.800 38.635,96.350 38.991,95.800 39.200 C 95.250 39.409,94.800 39.745,94.800 39.947 C 94.800 40.148,94.350 40.426,93.800 40.564 C 93.250 40.702,92.800 40.992,92.800 41.208 C 92.800 41.423,92.524 41.600,92.187 41.600 C 91.851 41.600,91.471 41.870,91.345 42.200 C 91.218 42.530,90.898 42.800,90.633 42.800 C 90.368 42.800,89.764 43.160,89.292 43.600 C 88.820 44.040,88.252 44.400,88.031 44.400 C 87.809 44.400,87.435 44.760,87.200 45.200 C 86.965 45.640,86.523 46.000,86.219 46.000 C 85.915 46.000,85.607 46.135,85.533 46.300 C 85.460 46.465,84.680 47.130,83.800 47.778 C 82.920 48.426,82.056 49.191,81.880 49.478 C 81.704 49.765,81.364 50.000,81.124 50.000 C 80.884 50.000,79.920 50.789,78.983 51.754 C 78.045 52.718,77.088 53.573,76.854 53.654 C 75.987 53.953,63.200 66.076,63.200 66.600 C 63.200 66.758,62.185 67.902,60.944 69.143 C 59.703 70.384,58.400 71.849,58.047 72.399 C 57.694 72.950,56.819 73.928,56.103 74.574 C 55.386 75.219,54.800 75.906,54.800 76.099 C 54.800 76.293,54.345 76.935,53.790 77.526 C 52.083 79.341,50.801 80.982,50.800 81.354 C 50.800 81.549,50.385 82.093,49.878 82.563 C 49.371 83.033,48.836 83.729,48.690 84.109 C 48.544 84.489,48.257 84.800,48.052 84.800 C 47.846 84.800,47.490 85.340,47.260 86.000 C 47.030 86.660,46.652 87.200,46.421 87.200 C 46.189 87.200,46.000 87.430,46.000 87.711 C 46.000 87.992,45.640 88.530,45.200 88.907 C 44.760 89.284,44.400 89.845,44.400 90.153 C 44.400 90.462,44.147 90.812,43.838 90.930 C 43.528 91.049,43.157 91.683,43.013 92.340 C 42.869 92.996,42.492 93.633,42.176 93.754 C 41.859 93.876,41.600 94.231,41.600 94.545 C 41.600 94.858,41.330 95.218,41.000 95.345 C 40.670 95.471,40.400 95.851,40.400 96.187 C 40.400 96.524,40.234 96.800,40.031 96.800 C 39.828 96.800,39.454 97.430,39.200 98.200 C 38.946 98.970,38.575 99.600,38.377 99.600 C 38.178 99.600,37.902 100.050,37.764 100.600 C 37.626 101.150,37.353 101.600,37.157 101.600 C 36.960 101.600,36.800 101.857,36.800 102.171 C 36.800 102.486,36.567 102.981,36.283 103.271 C 35.999 103.562,35.511 104.430,35.200 105.200 C 34.889 105.970,34.401 106.838,34.117 107.129 C 33.833 107.419,33.600 107.914,33.600 108.229 C 33.600 108.543,33.434 108.800,33.232 108.800 C 33.029 108.800,32.745 109.340,32.600 110.000 C 32.455 110.660,32.194 111.200,32.020 111.200 C 31.846 111.200,31.477 112.010,31.200 113.000 C 30.923 113.990,30.574 114.800,30.425 114.800 C 30.148 114.800,29.087 117.080,28.611 118.700 C 28.465 119.195,28.195 119.600,28.010 119.600 C 27.825 119.600,27.443 120.500,27.161 121.600 C 26.879 122.700,26.511 123.600,26.343 123.600 C 26.174 123.600,25.910 124.270,25.757 125.090 C 25.603 125.909,25.235 126.822,24.939 127.119 C 24.642 127.415,24.400 128.094,24.400 128.629 C 24.400 129.163,24.249 129.600,24.064 129.600 C 23.879 129.600,23.506 130.590,23.235 131.800 C 22.964 133.010,22.587 134.000,22.396 134.000 C 22.205 134.000,21.928 134.810,21.779 135.800 C 21.631 136.790,21.366 137.600,21.192 137.600 C 21.018 137.600,20.751 138.500,20.600 139.600 C 20.449 140.700,20.175 141.600,19.992 141.600 C 19.808 141.600,19.440 142.950,19.174 144.600 C 18.908 146.250,18.553 147.600,18.384 147.600 C 18.216 147.600,17.953 148.680,17.800 150.000 C 17.647 151.320,17.373 152.400,17.193 152.400 C 17.012 152.400,16.738 153.570,16.585 155.000 C 16.432 156.430,16.169 157.600,16.001 157.600 C 15.833 157.600,15.464 159.715,15.180 162.300 C 14.896 164.885,14.530 167.091,14.365 167.203 C 14.201 167.315,13.936 169.385,13.777 171.803 C 13.615 174.267,13.292 176.325,13.044 176.485 C 12.416 176.889,12.416 213.911,13.044 214.315 C 13.292 214.475,13.615 216.533,13.777 218.997 C 13.936 221.415,14.201 223.485,14.365 223.597 C 14.530 223.709,14.897 225.918,15.181 228.506 C 15.465 231.095,15.855 233.311,16.049 233.430 C 16.242 233.549,16.400 233.997,16.400 234.424 C 16.400 234.933,16.675 235.200,17.200 235.200 C 17.640 235.200,18.000 235.040,18.000 234.845 C 18.000 234.650,19.172 234.269,20.605 233.999 C 22.038 233.729,23.297 233.366,23.404 233.193 C 23.511 233.020,24.724 232.749,26.099 232.591 C 27.475 232.433,28.725 232.106,28.877 231.865 C 29.257 231.264,46.333 231.253,46.723 231.854 C 46.875 232.089,47.986 232.410,49.190 232.567 C 50.395 232.723,51.565 232.996,51.790 233.174 C 52.016 233.351,53.415 233.732,54.900 234.021 C 56.385 234.310,57.600 234.686,57.600 234.855 C 57.600 235.025,58.230 235.282,59.000 235.426 C 59.770 235.571,60.400 235.835,60.400 236.013 C 60.400 236.191,60.940 236.455,61.600 236.600 C 62.260 236.745,62.800 237.022,62.800 237.216 C 62.800 237.409,63.520 237.784,64.400 238.047 C 65.280 238.311,66.000 238.678,66.000 238.863 C 66.000 239.048,66.167 239.200,66.372 239.200 C 66.576 239.200,67.827 239.920,69.152 240.800 C 70.477 241.680,71.705 242.408,71.881 242.417 C 72.056 242.426,72.642 242.966,73.181 243.617 C 73.721 244.268,74.307 244.800,74.484 244.800 C 75.010 244.800,82.000 251.877,82.000 252.410 C 82.000 252.969,84.406 252.637,84.784 252.026 C 84.907 251.826,85.501 251.540,86.104 251.388 C 86.707 251.237,87.200 250.955,87.200 250.762 C 87.200 250.569,87.785 250.142,88.500 249.813 C 89.967 249.139,91.300 248.331,91.604 247.932 C 91.716 247.784,92.288 247.543,92.875 247.396 C 93.462 247.248,94.033 246.891,94.144 246.602 C 94.255 246.312,94.898 245.954,95.573 245.806 C 96.248 245.658,96.800 245.371,96.800 245.168 C 96.800 244.966,97.076 244.800,97.413 244.800 C 97.749 244.800,98.124 244.541,98.246 244.224 C 98.367 243.908,98.992 243.534,99.633 243.393 C 100.275 243.252,100.800 243.004,100.800 242.843 C 100.800 242.681,101.430 242.302,102.200 242.000 C 102.970 241.698,103.600 241.304,103.600 241.125 C 103.600 240.946,103.842 240.800,104.139 240.800 C 104.435 240.800,105.093 240.440,105.600 240.000 C 106.107 239.560,106.765 239.200,107.061 239.200 C 107.358 239.200,107.600 239.056,107.600 238.880 C 107.600 238.705,108.230 238.333,109.000 238.054 C 109.770 237.776,110.400 237.399,110.400 237.217 C 110.400 237.036,110.872 236.768,111.448 236.624 C 112.025 236.479,112.739 236.144,113.034 235.880 C 114.068 234.957,114.655 234.591,117.016 233.400 C 118.323 232.740,119.633 231.975,119.925 231.700 C 120.218 231.425,120.714 231.200,121.029 231.200 C 121.343 231.200,121.600 231.034,121.600 230.831 C 121.600 230.628,122.230 230.254,123.000 230.000 C 123.770 229.746,124.400 229.372,124.400 229.169 C 124.400 228.966,124.657 228.800,124.971 228.800 C 125.286 228.800,125.789 228.554,126.090 228.253 C 126.391 227.952,127.034 227.580,127.519 227.426 C 128.003 227.272,128.400 226.998,128.400 226.816 C 128.400 226.635,128.837 226.377,129.372 226.243 C 129.907 226.109,130.584 225.774,130.878 225.499 C 131.172 225.225,132.116 224.640,132.977 224.200 C 133.837 223.760,134.741 223.220,134.984 223.000 C 135.228 222.780,136.501 222.060,137.814 221.400 C 139.126 220.740,140.260 220.065,140.333 219.900 C 140.407 219.735,140.694 219.600,140.972 219.600 C 141.250 219.600,141.893 219.240,142.400 218.800 C 142.907 218.360,143.520 217.994,143.761 217.987 C 145.440 217.936,146.319 216.020,145.438 214.333 C 145.132 213.746,144.757 212.531,144.606 211.633 C 144.454 210.735,144.186 210.000,144.011 210.000 C 143.836 210.000,143.564 208.785,143.405 207.300 C 143.246 205.815,142.912 204.473,142.663 204.317 C 142.025 203.920,142.025 186.880,142.663 186.483 C 142.912 186.327,143.246 184.985,143.405 183.500 C 143.564 182.015,143.832 180.800,144.002 180.800 C 144.172 180.800,144.437 180.125,144.591 179.300 C 144.745 178.475,145.012 177.620,145.183 177.400 C 145.355 177.180,145.717 176.055,145.988 174.900 C 146.258 173.745,146.622 172.800,146.797 172.800 C 146.971 172.800,147.237 172.307,147.388 171.704 C 147.540 171.101,147.784 170.516,147.932 170.404 C 148.079 170.292,148.709 169.210,149.331 168.000 C 151.038 164.680,151.728 163.520,152.531 162.619 C 152.933 162.169,153.557 161.305,153.917 160.700 C 154.278 160.095,154.714 159.600,154.886 159.600 C 155.059 159.600,155.200 159.418,155.200 159.195 C 155.200 158.767,163.417 150.400,163.838 150.400 C 163.973 150.400,164.650 149.947,165.342 149.394 C 166.034 148.841,166.780 148.247,167.000 148.074 C 167.220 147.901,167.715 147.639,168.100 147.492 C 168.485 147.345,168.800 147.073,168.800 146.887 C 168.800 146.701,169.430 146.302,170.200 146.000 C 170.970 145.698,171.600 145.319,171.600 145.157 C 171.600 144.996,172.140 144.745,172.800 144.600 C 173.460 144.455,174.000 144.185,174.000 144.000 C 174.000 143.815,174.540 143.545,175.200 143.400 C 175.860 143.255,176.400 143.000,176.400 142.832 C 176.400 142.665,177.165 142.287,178.100 141.992 C 179.035 141.697,179.980 141.324,180.200 141.164 C 180.420 141.003,181.275 140.745,182.100 140.591 C 182.925 140.437,183.600 140.169,183.600 139.995 C 183.600 139.821,184.680 139.553,186.000 139.400 C 187.320 139.247,188.400 138.959,188.400 138.761 C 188.400 138.562,189.030 138.400,189.800 138.400 L 191.200 138.400 191.200 102.000 C 191.200 66.236,191.186 65.600,190.424 65.600 C 189.997 65.600,189.546 65.437,189.423 65.237 C 189.300 65.038,188.254 64.746,187.100 64.589 C 185.945 64.432,184.910 64.185,184.800 64.041 C 184.690 63.896,183.532 63.560,182.227 63.295 C 180.922 63.029,179.752 62.652,179.627 62.456 C 179.502 62.261,178.815 61.974,178.100 61.818 C 177.385 61.663,176.800 61.385,176.800 61.200 C 176.800 61.015,176.260 60.745,175.600 60.600 C 174.940 60.455,174.400 60.200,174.400 60.032 C 174.400 59.865,173.680 59.490,172.800 59.200 C 171.920 58.910,171.200 58.521,171.200 58.336 C 171.200 58.151,171.013 58.000,170.784 58.000 C 170.310 58.000,167.869 56.355,167.667 55.900 C 167.593 55.735,167.349 55.600,167.124 55.600 C 166.656 55.600,164.772 54.154,162.957 52.401 C 162.273 51.740,161.571 51.200,161.397 51.200 C 161.029 51.200,156.800 46.905,156.800 46.531 C 156.800 46.393,156.184 45.682,155.430 44.950 C 154.677 44.219,153.945 43.256,153.803 42.810 C 153.662 42.365,153.378 42.000,153.173 42.000 C 152.968 42.000,152.800 41.724,152.800 41.387 C 152.800 41.051,152.530 40.671,152.200 40.545 C 151.870 40.418,151.600 40.073,151.600 39.777 C 151.600 39.482,151.375 39.096,151.100 38.920 C 150.825 38.744,150.060 37.520,149.400 36.200 C 148.740 34.880,148.079 33.708,147.932 33.596 C 147.784 33.484,147.540 32.899,147.388 32.296 C 147.237 31.693,146.982 31.200,146.821 31.200 C 146.660 31.200,146.290 30.210,146.000 29.000 C 145.710 27.790,145.338 26.800,145.174 26.800 C 145.009 26.800,144.751 25.900,144.600 24.800 C 144.449 23.700,144.179 22.800,144.002 22.800 C 143.824 22.800,143.549 21.685,143.391 20.323 C 143.233 18.961,142.868 17.611,142.580 17.323 C 141.982 16.725,140.800 16.620,140.800 17.165 M257.347 17.348 C 257.098 17.633,256.765 18.976,256.608 20.333 C 256.450 21.690,256.188 22.800,256.025 22.800 C 255.862 22.800,255.503 24.060,255.228 25.600 C 254.953 27.140,254.572 28.400,254.382 28.400 C 254.192 28.400,253.918 29.030,253.774 29.800 C 253.629 30.570,253.365 31.200,253.187 31.200 C 253.009 31.200,252.745 31.740,252.600 32.400 C 252.455 33.060,252.207 33.600,252.049 33.600 C 251.890 33.600,251.519 34.268,251.224 35.085 C 250.928 35.902,250.442 36.815,250.143 37.114 C 249.844 37.413,249.600 37.895,249.600 38.186 C 249.600 38.477,249.330 38.818,249.000 38.945 C 248.670 39.071,248.400 39.451,248.400 39.787 C 248.400 40.124,248.216 40.400,247.990 40.400 C 247.765 40.400,247.407 40.855,247.196 41.411 C 246.767 42.538,246.385 43.042,244.500 44.959 C 243.785 45.686,243.200 46.417,243.200 46.584 C 243.200 46.978,238.980 51.200,238.587 51.200 C 238.421 51.200,237.727 51.747,237.043 52.415 C 235.306 54.114,233.459 55.599,233.083 55.600 C 232.909 55.600,232.549 55.783,232.283 56.007 C 230.355 57.634,229.813 58.000,229.339 58.000 C 229.042 58.000,228.800 58.151,228.800 58.336 C 228.800 58.521,228.080 58.910,227.200 59.200 C 226.320 59.490,225.600 59.865,225.600 60.032 C 225.600 60.200,225.060 60.455,224.400 60.600 C 223.740 60.745,223.200 61.021,223.200 61.214 C 223.200 61.406,222.570 61.682,221.800 61.826 C 221.030 61.971,220.400 62.236,220.400 62.416 C 220.400 62.596,219.365 62.965,218.100 63.237 C 216.835 63.510,215.620 63.862,215.400 64.021 C 215.180 64.180,214.055 64.437,212.900 64.593 C 211.745 64.748,210.800 65.038,210.800 65.238 C 210.800 65.437,210.350 65.600,209.800 65.600 L 208.800 65.600 208.800 102.000 L 208.800 138.400 210.200 138.400 C 210.970 138.400,211.600 138.562,211.600 138.761 C 211.600 138.959,212.680 139.247,214.000 139.400 C 215.320 139.553,216.400 139.821,216.400 139.995 C 216.400 140.169,217.075 140.437,217.900 140.591 C 218.725 140.745,219.580 141.004,219.800 141.166 C 220.020 141.328,220.965 141.679,221.900 141.946 C 222.835 142.213,223.600 142.605,223.600 142.816 C 223.600 143.027,223.805 143.200,224.056 143.200 C 224.509 143.200,228.017 144.815,228.400 145.200 C 228.510 145.311,229.140 145.671,229.800 146.000 C 230.460 146.329,231.144 146.824,231.320 147.099 C 231.496 147.375,231.901 147.600,232.220 147.600 C 232.539 147.600,232.800 147.768,232.800 147.973 C 232.800 148.178,233.205 148.474,233.700 148.630 C 234.195 148.787,234.835 149.249,235.123 149.657 C 235.410 150.066,235.826 150.400,236.046 150.400 C 236.491 150.400,244.800 158.592,244.800 159.031 C 244.800 159.183,245.205 159.690,245.700 160.157 C 246.195 160.624,246.855 161.500,247.168 162.103 C 247.480 162.706,247.885 163.200,248.068 163.200 C 248.250 163.200,248.400 163.442,248.400 163.739 C 248.400 164.035,248.760 164.693,249.200 165.200 C 249.640 165.707,250.000 166.365,250.000 166.661 C 250.000 166.958,250.151 167.200,250.336 167.200 C 250.521 167.200,250.910 167.920,251.200 168.800 C 251.490 169.680,251.865 170.400,252.032 170.400 C 252.200 170.400,252.455 170.940,252.600 171.600 C 252.745 172.260,253.021 172.800,253.214 172.800 C 253.406 172.800,253.682 173.430,253.826 174.200 C 253.971 174.970,254.216 175.600,254.371 175.600 C 254.526 175.600,254.886 176.770,255.170 178.200 C 255.454 179.630,255.826 180.800,255.997 180.800 C 256.167 180.800,256.436 182.015,256.595 183.500 C 256.754 184.985,257.088 186.327,257.337 186.483 C 257.653 186.679,257.791 189.391,257.791 195.400 C 257.791 201.409,257.653 204.121,257.337 204.317 C 257.088 204.473,256.754 205.815,256.595 207.300 C 256.436 208.785,256.168 210.000,255.999 210.000 C 255.829 210.000,255.470 211.170,255.200 212.600 C 254.930 214.030,254.550 215.200,254.355 215.200 C 252.905 215.200,254.768 217.557,256.700 218.169 C 257.195 218.326,257.600 218.622,257.600 218.827 C 257.600 219.032,257.857 219.200,258.171 219.200 C 258.486 219.200,258.982 219.425,259.275 219.700 C 259.567 219.975,260.879 220.740,262.190 221.400 C 263.500 222.060,264.816 222.825,265.115 223.100 C 265.413 223.375,265.914 223.600,266.229 223.600 C 266.543 223.600,266.800 223.777,266.800 223.992 C 266.800 224.208,267.250 224.498,267.800 224.636 C 268.350 224.774,268.800 225.033,268.800 225.212 C 268.800 225.391,269.430 225.746,270.200 226.000 C 270.970 226.254,271.600 226.625,271.600 226.823 C 271.600 227.022,272.050 227.298,272.600 227.436 C 273.150 227.574,273.600 227.847,273.600 228.043 C 273.600 228.240,273.846 228.400,274.146 228.400 C 274.446 228.400,275.121 228.735,275.646 229.145 C 276.171 229.555,277.042 230.028,277.581 230.198 C 278.121 230.367,278.790 230.707,279.067 230.953 C 280.404 232.137,280.806 232.386,281.766 232.627 C 282.335 232.770,282.800 233.036,282.800 233.217 C 282.800 233.399,283.430 233.776,284.200 234.054 C 284.970 234.333,285.600 234.705,285.600 234.880 C 285.600 235.056,285.876 235.200,286.213 235.200 C 286.549 235.200,286.924 235.459,287.046 235.776 C 287.167 236.092,287.792 236.466,288.433 236.607 C 289.075 236.748,289.600 236.996,289.600 237.157 C 289.600 237.319,290.230 237.698,291.000 238.000 C 291.770 238.302,292.400 238.681,292.400 238.843 C 292.400 239.004,292.925 239.252,293.567 239.393 C 294.208 239.534,294.833 239.908,294.954 240.224 C 295.076 240.541,295.451 240.800,295.787 240.800 C 296.124 240.800,296.400 240.946,296.400 241.125 C 296.400 241.304,297.030 241.698,297.800 242.000 C 298.570 242.302,299.200 242.681,299.200 242.843 C 299.200 243.004,299.740 243.255,300.400 243.400 C 301.060 243.545,301.600 243.824,301.600 244.020 C 301.600 244.216,302.590 244.845,303.800 245.417 C 305.010 245.990,306.000 246.611,306.000 246.797 C 306.000 246.984,306.540 247.255,307.200 247.400 C 307.860 247.545,308.400 247.808,308.400 247.985 C 308.400 248.162,308.715 248.422,309.100 248.563 C 309.485 248.704,310.520 249.261,311.400 249.802 C 312.280 250.342,313.450 251.009,314.000 251.284 C 314.550 251.559,315.099 251.920,315.220 252.086 C 315.629 252.649,318.000 252.935,318.000 252.422 C 318.000 251.908,325.011 244.800,325.517 244.800 C 325.685 244.800,326.267 244.304,326.811 243.697 C 327.355 243.090,328.250 242.365,328.800 242.085 C 330.945 240.992,332.213 240.179,332.520 239.700 C 332.696 239.425,333.101 239.200,333.420 239.200 C 333.739 239.200,334.000 239.020,334.000 238.800 C 334.000 238.580,334.222 238.400,334.494 238.400 C 335.031 238.400,339.274 236.368,339.600 235.954 C 339.710 235.815,340.385 235.574,341.100 235.418 C 341.815 235.263,342.400 235.004,342.400 234.842 C 342.400 234.679,343.615 234.310,345.100 234.021 C 346.585 233.732,347.984 233.351,348.210 233.174 C 348.435 232.996,349.605 232.726,350.810 232.572 C 352.014 232.419,353.250 232.095,353.555 231.852 C 354.310 231.252,370.740 231.262,371.125 231.863 C 371.276 232.099,372.480 232.423,373.800 232.584 C 375.120 232.745,376.380 233.013,376.600 233.179 C 376.820 233.345,378.125 233.712,379.500 233.995 C 380.875 234.278,382.000 234.665,382.000 234.855 C 382.000 235.045,382.360 235.200,382.800 235.200 C 383.325 235.200,383.600 234.933,383.600 234.424 C 383.600 233.997,383.762 233.547,383.959 233.425 C 384.157 233.303,384.447 231.897,384.604 230.302 C 384.761 228.706,385.027 227.220,385.195 227.000 C 385.535 226.555,386.403 218.740,386.401 216.133 C 386.400 215.155,386.606 214.398,386.900 214.300 C 387.291 214.170,387.400 210.031,387.400 195.400 C 387.400 180.769,387.291 176.630,386.900 176.500 C 386.606 176.402,386.400 175.645,386.401 174.667 C 386.403 172.060,385.535 164.245,385.195 163.800 C 385.027 163.580,384.761 162.095,384.604 160.500 C 384.447 158.905,384.178 157.600,384.006 157.600 C 383.834 157.600,383.568 156.430,383.415 155.000 C 383.262 153.570,383.000 152.400,382.833 152.400 C 382.666 152.400,382.301 150.870,382.023 149.000 C 381.745 147.130,381.379 145.600,381.210 145.600 C 381.041 145.600,380.784 144.700,380.638 143.600 C 380.492 142.500,380.216 141.600,380.024 141.600 C 379.832 141.600,379.551 140.700,379.400 139.600 C 379.249 138.500,378.998 137.600,378.842 137.600 C 378.687 137.600,378.337 136.520,378.064 135.200 C 377.792 133.880,377.412 132.800,377.219 132.800 C 377.027 132.800,376.749 132.080,376.600 131.200 C 376.451 130.320,376.166 129.600,375.965 129.600 C 375.764 129.600,375.600 129.163,375.600 128.629 C 375.600 128.094,375.361 127.418,375.070 127.127 C 374.778 126.835,374.422 126.012,374.280 125.298 C 374.137 124.584,373.656 123.200,373.210 122.222 C 372.765 121.244,372.400 120.331,372.400 120.193 C 372.400 120.056,372.130 119.673,371.800 119.343 C 371.470 119.013,371.200 118.306,371.200 117.771 C 371.200 117.237,371.049 116.800,370.864 116.800 C 370.679 116.800,370.290 116.080,370.000 115.200 C 369.710 114.320,369.335 113.600,369.168 113.600 C 369.000 113.600,368.745 113.060,368.600 112.400 C 368.455 111.740,368.190 111.200,368.012 111.200 C 367.833 111.200,367.563 110.707,367.412 110.104 C 367.260 109.501,367.016 108.916,366.868 108.804 C 366.721 108.692,366.060 107.522,365.400 106.203 C 364.740 104.885,363.975 103.567,363.700 103.275 C 363.425 102.982,363.200 102.486,363.200 102.171 C 363.200 101.857,363.056 101.600,362.880 101.600 C 362.705 101.600,362.333 100.970,362.054 100.200 C 361.776 99.430,361.399 98.800,361.217 98.800 C 361.036 98.800,360.774 98.350,360.636 97.800 C 360.498 97.250,360.208 96.800,359.992 96.800 C 359.777 96.800,359.600 96.524,359.600 96.187 C 359.600 95.851,359.361 95.483,359.068 95.371 C 358.776 95.259,358.292 94.544,357.993 93.783 C 357.695 93.023,357.304 92.400,357.125 92.400 C 356.946 92.400,356.800 92.124,356.800 91.787 C 356.800 91.451,356.546 91.078,356.236 90.959 C 355.926 90.839,355.563 90.305,355.428 89.771 C 355.294 89.237,355.004 88.800,354.782 88.800 C 354.561 88.800,354.209 88.350,354.000 87.800 C 353.791 87.250,353.435 86.800,353.210 86.800 C 352.984 86.800,352.800 86.528,352.800 86.196 C 352.800 85.864,352.440 85.284,352.000 84.907 C 351.560 84.530,351.200 83.992,351.200 83.711 C 351.200 83.430,351.035 83.200,350.833 83.200 C 350.631 83.200,350.099 82.607,349.651 81.882 C 349.203 81.157,348.513 80.181,348.118 79.712 C 347.723 79.244,346.950 78.276,346.400 77.562 C 345.850 76.848,344.635 75.464,343.700 74.487 C 342.765 73.510,342.000 72.591,342.000 72.445 C 342.000 72.299,340.830 70.963,339.400 69.476 C 337.970 67.988,336.800 66.668,336.800 66.542 C 336.800 66.058,323.954 53.918,323.163 53.654 C 322.899 53.566,322.150 52.888,321.500 52.147 C 320.849 51.406,320.135 50.800,319.912 50.800 C 319.689 50.800,318.829 50.080,318.000 49.200 C 317.171 48.320,316.337 47.600,316.147 47.600 C 315.809 47.599,314.044 46.248,312.766 45.013 C 312.418 44.676,312.005 44.400,311.850 44.400 C 311.694 44.400,311.180 44.040,310.708 43.600 C 310.236 43.160,309.613 42.800,309.325 42.800 C 309.036 42.800,308.800 42.614,308.800 42.387 C 308.800 42.161,308.485 41.855,308.100 41.708 C 307.715 41.561,307.220 41.293,307.000 41.113 C 306.780 40.933,306.167 40.429,305.639 39.993 C 305.110 39.557,304.429 39.200,304.126 39.200 C 303.823 39.200,303.471 38.930,303.345 38.600 C 303.218 38.270,302.946 38.000,302.741 38.000 C 302.399 38.000,300.069 36.500,299.600 35.977 C 299.490 35.855,298.815 35.518,298.100 35.229 C 297.385 34.940,296.800 34.559,296.800 34.383 C 296.800 34.207,296.275 33.948,295.633 33.807 C 294.992 33.666,294.367 33.292,294.246 32.976 C 294.124 32.659,293.749 32.400,293.413 32.400 C 293.076 32.400,292.800 32.234,292.800 32.032 C 292.800 31.829,292.248 31.542,291.573 31.394 C 290.898 31.246,290.255 30.888,290.144 30.598 C 290.033 30.309,289.462 29.952,288.875 29.804 C 288.288 29.657,287.716 29.414,287.604 29.264 C 287.289 28.844,283.051 26.800,282.494 26.800 C 282.222 26.800,282.000 26.634,282.000 26.432 C 282.000 26.229,281.460 25.945,280.800 25.800 C 280.140 25.655,279.600 25.379,279.600 25.186 C 279.600 24.994,278.970 24.718,278.200 24.574 C 277.430 24.429,276.800 24.168,276.800 23.992 C 276.800 23.817,275.900 23.443,274.800 23.161 C 273.700 22.879,272.800 22.517,272.800 22.356 C 272.800 22.195,272.260 21.945,271.600 21.800 C 270.940 21.655,270.400 21.387,270.400 21.203 C 270.400 21.020,269.680 20.749,268.800 20.600 C 267.920 20.451,267.200 20.173,267.200 19.981 C 267.200 19.788,266.120 19.408,264.800 19.136 C 263.480 18.863,262.400 18.512,262.400 18.355 C 262.400 18.198,261.680 17.949,260.800 17.800 C 259.920 17.651,259.200 17.366,259.200 17.165 C 259.200 16.621,257.868 16.753,257.347 17.348 M190.800 159.318 C 189.590 159.545,188.510 159.858,188.400 160.015 C 188.290 160.171,187.615 160.426,186.900 160.582 C 186.185 160.737,185.600 161.021,185.600 161.214 C 185.600 161.406,184.970 161.682,184.200 161.826 C 183.430 161.971,182.800 162.222,182.800 162.384 C 182.800 162.546,182.125 162.970,181.300 163.326 C 179.436 164.130,178.497 164.746,177.380 165.900 C 176.901 166.395,176.367 166.800,176.195 166.800 C 175.768 166.800,171.200 171.440,171.200 171.874 C 171.200 172.066,170.840 172.530,170.400 172.907 C 169.960 173.284,169.600 173.845,169.600 174.153 C 169.600 174.462,169.330 174.818,169.000 174.945 C 168.670 175.071,168.400 175.451,168.400 175.787 C 168.400 176.124,168.254 176.400,168.075 176.400 C 167.896 176.400,167.502 177.030,167.200 177.800 C 166.898 178.570,166.504 179.200,166.325 179.200 C 166.146 179.200,165.994 179.515,165.986 179.900 C 165.979 180.285,165.625 181.320,165.200 182.200 C 164.775 183.080,164.421 184.280,164.414 184.867 C 164.406 185.453,164.175 186.008,163.900 186.100 C 163.226 186.325,163.173 204.283,163.844 204.715 C 164.089 204.872,164.415 205.855,164.569 206.900 C 164.723 207.945,165.010 208.800,165.206 208.800 C 165.403 208.800,165.682 209.430,165.826 210.200 C 165.971 210.970,166.213 211.600,166.364 211.600 C 166.515 211.600,166.867 212.230,167.146 213.000 C 167.424 213.770,167.801 214.400,167.983 214.400 C 168.164 214.400,168.426 214.850,168.564 215.400 C 168.702 215.950,168.992 216.400,169.208 216.400 C 169.423 216.400,169.600 216.664,169.600 216.986 C 169.600 217.308,169.960 217.765,170.400 218.000 C 170.840 218.235,171.200 218.687,171.200 219.004 C 171.200 219.321,171.848 220.170,172.640 220.890 C 173.433 221.611,174.738 222.798,175.540 223.528 C 176.343 224.259,177.285 225.114,177.634 225.428 C 177.982 225.743,178.483 226.000,178.746 226.000 C 179.010 226.000,179.329 226.270,179.455 226.600 C 179.582 226.930,179.923 227.200,180.214 227.200 C 180.505 227.200,180.984 227.441,181.278 227.735 C 181.911 228.369,186.859 230.400,187.768 230.400 C 188.116 230.400,188.400 230.557,188.400 230.748 C 188.400 230.940,189.342 231.222,190.492 231.375 C 191.643 231.527,192.700 231.837,192.839 232.064 C 193.173 232.603,206.812 232.624,207.153 232.086 C 207.289 231.872,208.345 231.568,209.500 231.411 C 210.655 231.254,211.600 230.962,211.600 230.762 C 211.600 230.563,211.948 230.400,212.374 230.400 C 213.320 230.400,217.999 228.422,218.729 227.713 C 219.019 227.431,219.495 227.200,219.786 227.200 C 220.077 227.200,220.418 226.930,220.545 226.600 C 220.671 226.270,221.011 226.000,221.299 226.000 C 221.587 226.000,222.134 225.685,222.515 225.300 C 222.896 224.915,224.359 223.610,225.767 222.400 C 227.174 221.190,228.458 219.840,228.620 219.400 C 228.782 218.960,229.249 218.365,229.657 218.077 C 230.066 217.790,230.400 217.295,230.400 216.977 C 230.400 216.660,230.568 216.400,230.773 216.400 C 230.978 216.400,231.272 215.995,231.427 215.500 C 231.581 215.005,231.828 214.510,231.975 214.400 C 232.575 213.951,233.932 211.315,234.189 210.100 C 234.340 209.385,234.618 208.800,234.807 208.800 C 234.996 208.800,235.277 207.945,235.431 206.900 C 235.585 205.855,235.911 204.872,236.156 204.715 C 236.777 204.315,236.777 186.485,236.156 186.085 C 235.911 185.928,235.585 184.945,235.431 183.900 C 235.277 182.855,235.003 182.000,234.823 182.000 C 234.643 182.000,234.297 181.215,234.056 180.256 C 233.814 179.297,233.343 178.285,233.008 178.007 C 232.674 177.729,232.400 177.254,232.400 176.951 C 232.400 176.648,232.220 176.400,232.000 176.400 C 231.780 176.400,231.600 176.139,231.600 175.820 C 231.600 175.501,231.371 175.096,231.092 174.920 C 230.812 174.744,230.366 174.105,230.100 173.500 C 229.835 172.895,229.433 172.400,229.209 172.400 C 228.984 172.400,228.800 172.208,228.800 171.973 C 228.800 171.448,224.357 166.800,223.854 166.800 C 223.655 166.800,223.099 166.395,222.620 165.900 C 221.577 164.823,220.633 164.183,218.927 163.398 C 218.227 163.076,217.554 162.650,217.432 162.451 C 217.309 162.253,216.577 161.972,215.804 161.827 C 215.032 161.682,214.400 161.400,214.400 161.200 C 214.400 161.000,213.770 160.718,213.000 160.574 C 212.230 160.429,211.600 160.177,211.600 160.014 C 211.600 158.934,195.685 158.401,190.800 159.318 M154.000 231.912 C 154.000 232.084,153.505 232.438,152.900 232.698 C 151.774 233.182,150.357 234.025,150.000 234.423 C 149.890 234.545,149.215 234.882,148.500 235.171 C 147.785 235.460,147.200 235.841,147.200 236.017 C 147.200 236.193,146.660 236.455,146.000 236.600 C 145.340 236.745,144.800 237.029,144.800 237.232 C 144.800 237.434,144.539 237.600,144.220 237.600 C 143.901 237.600,143.496 237.845,143.320 238.143 C 143.144 238.442,142.339 238.902,141.532 239.164 C 140.725 239.426,139.848 239.902,139.583 240.220 C 139.318 240.539,138.854 240.800,138.551 240.800 C 138.248 240.800,138.000 240.980,138.000 241.200 C 138.000 241.420,137.739 241.600,137.420 241.600 C 137.101 241.600,136.696 241.845,136.520 242.143 C 136.344 242.442,135.539 242.902,134.732 243.164 C 133.925 243.426,133.048 243.902,132.783 244.220 C 132.518 244.539,132.054 244.800,131.751 244.800 C 131.448 244.800,131.200 244.980,131.200 245.200 C 131.200 245.420,130.954 245.600,130.654 245.600 C 130.354 245.600,129.664 245.949,129.122 246.375 C 128.580 246.802,127.669 247.268,127.097 247.411 C 126.526 247.555,125.961 247.926,125.841 248.236 C 125.722 248.546,125.349 248.800,125.013 248.800 C 124.676 248.800,124.400 248.966,124.400 249.168 C 124.400 249.371,123.875 249.652,123.233 249.793 C 122.592 249.934,121.974 250.291,121.860 250.587 C 121.747 250.883,121.102 251.246,120.427 251.394 C 119.752 251.542,119.200 251.829,119.200 252.032 C 119.200 252.234,118.924 252.400,118.587 252.400 C 118.251 252.400,117.876 252.659,117.754 252.976 C 117.633 253.292,117.008 253.666,116.367 253.807 C 115.725 253.948,115.200 254.196,115.200 254.357 C 115.200 254.519,114.570 254.898,113.800 255.200 C 113.030 255.502,112.400 255.896,112.400 256.075 C 112.400 256.254,112.124 256.400,111.787 256.400 C 111.451 256.400,111.076 256.659,110.954 256.976 C 110.833 257.292,110.208 257.666,109.567 257.807 C 108.925 257.948,108.400 258.196,108.400 258.357 C 108.400 258.519,107.770 258.898,107.000 259.200 C 106.230 259.502,105.600 259.881,105.600 260.043 C 105.600 260.204,105.075 260.452,104.433 260.593 C 103.792 260.734,103.167 261.108,103.046 261.424 C 102.924 261.741,102.549 262.000,102.213 262.000 C 101.876 262.000,101.600 262.166,101.600 262.368 C 101.600 262.571,101.048 262.858,100.373 263.006 C 99.698 263.154,99.055 263.512,98.944 263.802 C 98.833 264.091,98.283 264.443,97.723 264.584 C 97.162 264.724,96.461 265.056,96.166 265.320 C 94.874 266.473,94.473 266.714,93.077 267.174 C 91.647 267.646,91.057 268.817,91.965 269.378 C 92.166 269.503,92.452 270.323,92.600 271.202 C 92.749 272.081,93.014 272.800,93.189 272.800 C 93.364 272.800,93.637 273.835,93.795 275.100 C 93.952 276.365,94.229 277.492,94.409 277.604 C 95.635 278.367,95.635 300.033,94.409 300.796 C 94.229 300.908,93.952 302.035,93.795 303.300 C 93.637 304.565,93.364 305.600,93.189 305.600 C 93.014 305.600,92.749 306.320,92.600 307.200 C 92.451 308.080,92.183 308.800,92.005 308.800 C 91.826 308.800,91.464 309.700,91.200 310.800 C 90.936 311.900,90.572 312.800,90.392 312.800 C 90.211 312.800,89.945 313.340,89.800 314.000 C 89.655 314.660,89.385 315.200,89.200 315.200 C 89.015 315.200,88.745 315.740,88.600 316.400 C 88.455 317.060,88.204 317.600,88.043 317.600 C 87.881 317.600,87.505 318.223,87.207 318.983 C 86.908 319.744,86.424 320.459,86.132 320.571 C 85.839 320.683,85.600 320.973,85.600 321.216 C 85.600 321.459,85.375 321.894,85.100 322.184 C 84.825 322.474,84.240 323.211,83.800 323.822 C 83.360 324.432,82.775 325.159,82.500 325.437 C 82.225 325.715,82.000 326.052,82.000 326.185 C 82.000 326.319,80.200 328.215,78.000 330.400 C 75.800 332.585,74.000 334.468,74.000 334.586 C 74.000 335.032,77.155 337.932,77.896 338.167 C 78.323 338.303,78.910 338.857,79.200 339.400 C 79.490 339.943,80.085 340.500,80.522 340.639 C 80.958 340.777,81.823 341.410,82.444 342.045 C 83.065 342.680,83.719 343.200,83.898 343.200 C 84.076 343.200,84.530 343.560,84.907 344.000 C 85.284 344.440,85.821 344.800,86.100 344.800 C 86.379 344.800,86.832 345.160,87.107 345.600 C 87.382 346.040,87.793 346.400,88.020 346.400 C 88.247 346.400,88.816 346.756,89.283 347.192 C 89.751 347.627,90.868 348.473,91.766 349.071 C 92.665 349.669,93.584 350.348,93.809 350.579 C 94.263 351.046,94.789 351.382,98.000 353.260 C 99.210 353.968,100.290 354.649,100.400 354.774 C 100.685 355.096,102.030 355.923,103.200 356.494 C 103.750 356.763,104.333 357.192,104.495 357.447 C 104.657 357.702,105.285 358.035,105.891 358.187 C 106.496 358.339,107.084 358.584,107.196 358.732 C 107.709 359.407,113.537 362.400,114.339 362.400 C 114.592 362.400,114.800 362.577,114.800 362.792 C 114.800 363.008,115.250 363.298,115.800 363.436 C 116.350 363.574,116.800 363.833,116.800 364.012 C 116.800 364.190,117.340 364.455,118.000 364.600 C 118.660 364.745,119.200 365.006,119.200 365.180 C 119.200 365.354,120.010 365.723,121.000 366.000 C 121.990 366.277,122.800 366.641,122.800 366.807 C 122.800 366.974,123.430 367.229,124.200 367.374 C 124.970 367.518,125.600 367.800,125.600 368.000 C 125.600 368.200,126.230 368.482,127.000 368.626 C 127.770 368.771,128.400 369.031,128.400 369.205 C 128.400 369.378,129.300 369.736,130.400 370.000 C 131.500 370.264,132.400 370.626,132.400 370.805 C 132.400 370.983,133.120 371.251,134.000 371.400 C 134.880 371.549,135.600 371.826,135.600 372.017 C 135.600 372.208,136.258 372.487,137.063 372.638 C 137.867 372.789,138.992 373.156,139.563 373.454 C 140.133 373.751,141.455 374.109,142.500 374.249 C 143.545 374.389,144.400 374.644,144.400 374.816 C 144.400 374.989,145.119 375.251,145.998 375.400 C 146.877 375.548,147.687 375.817,147.798 375.997 C 147.910 376.178,148.946 376.454,150.100 376.611 C 151.255 376.768,152.300 377.055,152.423 377.247 C 152.546 377.440,154.121 377.806,155.923 378.061 C 157.725 378.316,159.200 378.658,159.200 378.822 C 159.200 378.985,160.460 379.245,162.000 379.400 C 163.540 379.555,164.800 379.820,164.800 379.989 C 164.800 380.158,166.285 380.426,168.100 380.584 C 169.915 380.742,171.580 381.015,171.800 381.192 C 172.275 381.574,181.750 382.400,185.657 382.400 C 187.219 382.400,188.400 382.572,188.400 382.800 C 188.400 383.057,192.533 383.200,200.000 383.200 C 207.467 383.200,211.600 383.057,211.600 382.800 C 211.600 382.572,212.781 382.400,214.343 382.400 C 218.250 382.400,227.725 381.574,228.200 381.192 C 228.420 381.015,230.085 380.742,231.900 380.584 C 233.715 380.426,235.200 380.158,235.200 379.989 C 235.200 379.820,236.460 379.555,238.000 379.400 C 239.540 379.245,240.800 378.985,240.800 378.822 C 240.800 378.658,242.275 378.316,244.077 378.061 C 245.879 377.806,247.454 377.440,247.577 377.247 C 247.700 377.055,248.745 376.768,249.900 376.611 C 251.054 376.454,252.090 376.178,252.202 375.997 C 252.313 375.817,253.123 375.548,254.002 375.400 C 254.881 375.251,255.600 374.989,255.600 374.816 C 255.600 374.644,256.455 374.389,257.500 374.249 C 258.545 374.109,259.867 373.751,260.437 373.454 C 261.008 373.156,262.133 372.789,262.937 372.638 C 263.742 372.487,264.400 372.208,264.400 372.017 C 264.400 371.826,265.120 371.549,266.000 371.400 C 266.880 371.251,267.600 370.983,267.600 370.805 C 267.600 370.626,268.500 370.264,269.600 370.000 C 270.700 369.736,271.600 369.378,271.600 369.205 C 271.600 369.031,272.230 368.771,273.000 368.626 C 273.770 368.482,274.400 368.206,274.400 368.014 C 274.400 367.821,274.922 367.549,275.561 367.409 C 276.199 367.268,277.408 366.804,278.246 366.377 C 279.084 365.950,280.001 365.600,280.285 365.600 C 280.568 365.600,280.800 365.434,280.800 365.232 C 280.800 365.029,281.340 364.745,282.000 364.600 C 282.660 364.455,283.200 364.185,283.200 364.000 C 283.200 363.815,283.740 363.545,284.400 363.400 C 285.060 363.255,285.600 362.985,285.600 362.799 C 285.600 362.614,286.275 362.242,287.100 361.973 C 287.925 361.704,288.690 361.371,288.800 361.234 C 288.910 361.096,289.450 360.764,290.000 360.495 C 291.281 359.869,292.543 359.075,292.804 358.732 C 292.916 358.584,293.516 358.336,294.136 358.180 C 294.757 358.024,295.355 357.661,295.466 357.373 C 295.576 357.085,296.177 356.737,296.800 356.600 C 297.423 356.463,298.033 356.092,298.154 355.776 C 298.276 355.459,298.651 355.200,298.987 355.200 C 299.324 355.200,299.600 355.032,299.600 354.827 C 299.600 354.622,299.995 354.329,300.477 354.175 C 300.960 354.022,302.218 353.290,303.273 352.548 C 304.328 351.807,305.374 351.200,305.596 351.200 C 305.818 351.200,306.000 351.038,306.000 350.840 C 306.000 350.531,308.225 348.954,309.372 348.449 C 309.577 348.359,310.138 347.861,310.618 347.343 C 311.099 346.824,311.625 346.400,311.788 346.400 C 312.085 346.400,314.044 344.921,315.234 343.798 C 315.582 343.469,316.013 343.200,316.190 343.200 C 316.368 343.200,317.029 342.660,317.660 342.000 C 318.291 341.340,318.977 340.800,319.184 340.800 C 319.392 340.800,320.173 340.170,320.921 339.400 C 321.669 338.630,322.390 338.000,322.524 338.000 C 322.892 338.000,326.000 334.969,326.000 334.609 C 326.000 334.436,324.200 332.525,322.000 330.361 C 319.800 328.198,318.000 326.319,318.000 326.185 C 318.000 326.052,317.775 325.715,317.500 325.437 C 317.225 325.159,316.640 324.432,316.200 323.822 C 315.760 323.211,315.175 322.474,314.900 322.184 C 314.625 321.894,314.400 321.526,314.400 321.366 C 314.400 321.206,313.950 320.486,313.400 319.764 C 312.850 319.043,312.400 318.261,312.400 318.027 C 312.400 317.792,312.234 317.600,312.032 317.600 C 311.829 317.600,311.545 317.060,311.400 316.400 C 311.255 315.740,310.971 315.200,310.768 315.200 C 310.566 315.200,310.400 314.968,310.400 314.685 C 310.400 314.401,310.050 313.484,309.623 312.646 C 309.196 311.808,308.732 310.599,308.591 309.961 C 308.451 309.322,308.187 308.800,308.003 308.800 C 307.820 308.800,307.549 308.080,307.400 307.200 C 307.251 306.320,306.992 305.600,306.823 305.600 C 306.654 305.600,306.284 303.935,306.000 301.900 C 305.716 299.865,305.295 297.959,305.063 297.664 C 304.507 296.956,304.487 281.250,305.042 280.872 C 305.262 280.723,305.678 278.890,305.966 276.800 C 306.254 274.710,306.634 272.910,306.808 272.799 C 306.983 272.689,307.253 271.924,307.408 271.099 C 307.562 270.275,307.849 269.600,308.045 269.600 C 309.164 269.600,308.308 267.632,307.000 267.200 C 306.230 266.946,305.600 266.591,305.600 266.412 C 305.600 266.233,305.150 265.974,304.600 265.836 C 304.050 265.698,303.600 265.408,303.600 265.192 C 303.600 264.977,303.354 264.800,303.054 264.800 C 302.754 264.800,302.079 264.465,301.554 264.055 C 301.029 263.645,300.158 263.172,299.619 263.002 C 299.079 262.833,298.410 262.493,298.133 262.247 C 296.796 261.063,296.394 260.814,295.434 260.573 C 294.865 260.430,294.400 260.164,294.400 259.983 C 294.400 259.801,293.770 259.424,293.000 259.146 C 292.230 258.867,291.600 258.495,291.600 258.320 C 291.600 258.144,291.358 258.000,291.061 258.000 C 290.765 258.000,290.107 257.640,289.600 257.200 C 289.093 256.760,288.435 256.400,288.139 256.400 C 287.842 256.400,287.600 256.254,287.600 256.075 C 287.600 255.896,286.970 255.502,286.200 255.200 C 285.430 254.898,284.800 254.519,284.800 254.357 C 284.800 254.196,284.275 253.948,283.633 253.807 C 282.992 253.666,282.367 253.292,282.246 252.976 C 282.124 252.659,281.749 252.400,281.413 252.400 C 281.076 252.400,280.800 252.234,280.800 252.032 C 280.800 251.829,280.248 251.542,279.573 251.394 C 278.898 251.246,278.253 250.883,278.140 250.587 C 278.026 250.291,277.408 249.934,276.767 249.793 C 276.125 249.652,275.600 249.371,275.600 249.168 C 275.600 248.966,275.324 248.800,274.987 248.800 C 274.651 248.800,274.276 248.541,274.154 248.224 C 274.033 247.908,273.396 247.531,272.740 247.387 C 272.083 247.243,271.453 246.883,271.340 246.587 C 271.226 246.291,270.608 245.934,269.967 245.793 C 269.325 245.652,268.800 245.371,268.800 245.168 C 268.800 244.966,268.552 244.800,268.249 244.800 C 267.946 244.800,267.482 244.539,267.217 244.220 C 266.952 243.902,266.075 243.426,265.268 243.164 C 264.461 242.902,263.656 242.442,263.480 242.143 C 263.304 241.845,262.899 241.600,262.580 241.600 C 262.261 241.600,262.000 241.420,262.000 241.200 C 262.000 240.980,261.752 240.800,261.449 240.800 C 261.146 240.800,260.682 240.539,260.417 240.220 C 260.152 239.902,259.275 239.426,258.468 239.164 C 257.661 238.902,256.856 238.442,256.680 238.143 C 256.504 237.845,256.099 237.600,255.780 237.600 C 255.461 237.600,255.200 237.434,255.200 237.232 C 255.200 237.029,254.675 236.748,254.033 236.607 C 253.392 236.466,252.776 236.115,252.666 235.827 C 252.555 235.539,251.957 235.176,251.336 235.020 C 250.716 234.864,250.116 234.616,250.004 234.468 C 249.692 234.058,248.325 233.225,247.100 232.698 C 246.495 232.438,246.000 232.084,246.000 231.912 C 246.000 230.957,244.996 231.689,242.767 234.268 C 242.420 234.671,241.520 235.562,240.767 236.248 C 240.015 236.935,239.111 237.835,238.757 238.248 C 237.847 239.313,236.458 240.400,236.010 240.400 C 235.800 240.400,235.435 240.760,235.200 241.200 C 234.965 241.640,234.591 242.000,234.369 242.000 C 234.148 242.000,233.580 242.360,233.108 242.800 C 232.636 243.240,232.032 243.600,231.767 243.600 C 231.502 243.600,231.182 243.870,231.055 244.200 C 230.929 244.530,230.549 244.800,230.213 244.800 C 229.876 244.800,229.600 244.966,229.600 245.168 C 229.600 245.371,229.060 245.655,228.400 245.800 C 227.740 245.945,227.200 246.229,227.200 246.432 C 227.200 246.634,226.978 246.800,226.706 246.800 C 226.177 246.800,221.935 248.826,221.600 249.238 C 221.490 249.374,220.680 249.617,219.801 249.779 C 218.921 249.941,218.106 250.229,217.989 250.418 C 217.872 250.608,216.566 250.992,215.088 251.273 C 213.610 251.553,212.400 251.905,212.400 252.054 C 212.400 252.203,210.690 252.454,208.600 252.610 C 206.510 252.767,204.800 253.054,204.800 253.248 C 204.800 253.441,202.640 253.600,200.000 253.600 C 197.360 253.600,195.200 253.441,195.200 253.248 C 195.200 253.054,193.490 252.767,191.400 252.610 C 189.310 252.454,187.600 252.191,187.600 252.027 C 187.600 251.862,186.340 251.503,184.800 251.228 C 183.260 250.953,182.000 250.575,182.000 250.388 C 182.000 250.202,181.190 249.928,180.200 249.779 C 179.210 249.631,178.400 249.387,178.400 249.238 C 178.400 248.925,173.901 246.800,173.240 246.800 C 172.998 246.800,172.800 246.640,172.800 246.443 C 172.800 246.247,172.335 245.970,171.766 245.827 C 170.793 245.583,170.377 245.322,169.015 244.100 C 168.708 243.825,168.309 243.600,168.129 243.600 C 167.806 243.599,166.019 242.224,164.766 241.013 C 164.418 240.676,163.968 240.397,163.766 240.394 C 163.565 240.391,161.445 238.411,159.055 235.994 C 155.041 231.934,154.000 231.093,154.000 231.912 " stroke="none" fill="#1c7cb4" fill-rule="evenodd"></path><path id="path1" d="" stroke="none" fill="#207cb4" fill-rule="evenodd"></path></g></svg>