<?xml version="1.0" standalone="no"?>
<!DOCTYPE svg PUBLIC "-//W3C//DTD SVG 20010904//EN"
 "http://www.w3.org/TR/2001/REC-SVG-20010904/DTD/svg10.dtd">
<svg version="1.0" xmlns="http://www.w3.org/2000/svg"
 width="700.000000pt" height="700.000000pt" viewBox="0 0 700.000000 700.000000"
 preserveAspectRatio="xMidYMid meet">
<metadata>
Created by potrace 1.11, written by Peter Selinger 2001-2013
</metadata>
<g transform="translate(0.000000,700.000000) scale(0.100000,-0.100000)"
fill="#000000" stroke="none">
<path d="M2370 6656 c-301 -113 -518 -229 -800 -427 -141 -99 -409 -345 -540
-494 -121 -138 -259 -330 -362 -505 -196 -331 -350 -762 -404 -1130 -4 -30 -8
-57 -9 -60 -2 -8 -14 -119 -22 -195 -13 -143 -7 -508 11 -645 2 -14 7 -48 10
-75 6 -41 16 -102 21 -125 1 -3 5 -27 10 -53 8 -54 2 -52 90 -27 363 103 742
5 1003 -258 40 -41 79 -72 86 -69 7 3 159 90 337 193 178 103 341 197 361 208
37 21 228 132 260 151 9 5 37 21 63 35 26 13 48 27 51 31 2 4 -7 49 -20 101
-14 51 -28 118 -32 148 -35 286 62 585 260 805 136 150 325 263 522 310 l71
17 0 625 c0 443 -3 626 -11 628 -6 2 -52 15 -102 29 -232 64 -429 205 -563
401 -80 117 -119 208 -168 392 l-8 32 -115 -43z"/>
<path d="M4493 6616 c-73 -294 -270 -540 -541 -676 -76 -37 -234 -90 -272 -90
-16 0 -17 -36 -17 -629 l0 -630 51 -11 c202 -47 372 -142 515 -288 190 -194
292 -444 292 -709 0 -108 -7 -159 -37 -269 -13 -51 -24 -94 -24 -97 0 -4 70
-46 194 -117 17 -10 135 -77 261 -150 127 -74 247 -143 267 -154 20 -12 109
-63 197 -113 88 -51 162 -93 165 -93 2 0 38 33 79 74 41 40 106 94 144 119 73
49 184 107 203 107 6 0 23 6 38 14 24 12 93 29 207 51 41 7 178 7 245 0 30 -4
97 -17 149 -31 52 -13 95 -23 97 -22 3 4 31 165 40 233 3 28 8 59 10 70 9 48
18 242 18 380 0 201 -14 380 -40 525 -1 8 -6 35 -10 60 -4 25 -8 50 -10 55 -1
6 -5 25 -9 44 -3 19 -8 37 -10 41 -2 3 -6 17 -8 31 -11 57 -49 191 -80 284
-133 391 -348 770 -617 1086 -134 158 -377 384 -536 499 -38 27 -73 53 -79 57
-25 21 -107 73 -115 73 -4 0 -10 4 -12 8 -10 24 -487 272 -523 272 -4 0 -21 6
-38 14 -18 8 -64 26 -103 40 l-71 25 -20 -83z"/>
<path d="M3375 4210 c-216 -43 -399 -203 -481 -420 -25 -68 -28 -87 -28 -205
0 -143 8 -182 65 -300 45 -94 177 -227 269 -272 101 -49 157 -64 256 -70 209
-13 382 58 522 213 110 122 164 273 158 442 -2 53 -6 104 -8 112 -3 8 -8 29
-12 45 -50 205 -255 402 -471 450 -46 11 -225 13 -270 5z"/>
<path d="M2660 2908 c-19 -11 -48 -29 -65 -38 -16 -10 -102 -59 -190 -110 -88
-51 -180 -104 -204 -118 -25 -13 -68 -38 -95 -55 -28 -16 -67 -39 -86 -50
-256 -145 -400 -232 -400 -241 0 -7 7 -32 15 -57 43 -126 55 -337 29 -480 -38
-208 -131 -385 -281 -538 l-75 -76 49 -44 c168 -152 444 -336 691 -460 225
-113 574 -232 802 -274 94 -18 152 -27 195 -32 28 -4 61 -8 75 -11 154 -25
575 -24 775 2 61 8 225 35 238 39 7 2 28 6 48 9 20 3 48 10 63 15 14 6 26 9
26 6 0 -2 15 1 33 6 17 6 39 12 47 14 424 103 966 390 1289 682 l54 48 -69 70
c-82 84 -99 104 -141 170 -117 186 -172 396 -160 610 5 79 10 111 31 211 2 11
11 36 19 56 18 44 26 36 -113 115 -96 55 -332 190 -405 233 -227 132 -554 320
-558 320 -2 0 -36 -33 -77 -73 -329 -322 -805 -390 -1210 -174 -76 41 -187
126 -249 192 -29 30 -55 55 -59 55 -4 0 -23 -10 -42 -22z"/>
</g>
</svg>
